Coordinates
version=1
nRows=9
nColumns=24
inDegrees=yes

Units are S.I. units (second, meters, Newtons, ...)
Angles are in degrees.

endheader
time	pelvis_tilt	pelvis_list	pelvis_rotation	pelvis_tx	pelvis_ty	pelvis_tz	hip_flexion_r	hip_adduction_r	hip_rotation_r	knee_angle_r	ankle_angle_r	subtalar_angle_r	mtp_angle_r	hip_flexion_l	hip_adduction_l	hip_rotation_l	knee_angle_l	ankle_angle_l	subtalar_angle_l	mtp_angle_l	lumbar_extension	lumbar_bending	lumbar_rotation
      2.34500000	     -7.23599421	     -1.43777944	      0.55228385	      0.77649062	      1.26681838	     -0.91359381	     -1.17431278	      5.36016749	      0.01050856	    -33.65890675	    -10.03463084	      5.64904149	     19.15741266	     25.09842146	      5.22996012	      7.45630869	    -10.15470709	    -12.45801192	    -21.96137165	     -0.75826572	      1.47113857	     -1.23275570	      0.72203187
      2.35000000	     -7.02368758	     -1.10248391	      0.69272126	      0.78290221	      1.26794451	     -0.91410383	     -0.59269157	      4.71081748	     -0.93453302	    -35.24940338	    -11.62155627	      5.46499800	     18.69307497	     24.26832441	      5.62632259	      7.50055064	     -9.95102178	    -12.28939243	    -21.91564047	     -0.74998599	      1.36425914	     -1.69965966	      0.62190247
      2.35500000	     -6.80663717	     -0.76473489	      0.79899022	      0.78928141	      1.26908669	     -0.91459118	     -0.00243442	      4.05500738	     -1.77864660	    -36.82749664	    -13.11332672	      5.11438762	     17.84135788	     23.37773039	      6.00581497	      7.51636771	     -9.64306091	    -12.13831684	    -21.90264570	     -0.73703871	      1.24986232	     -2.15774492	      0.57393330
      2.36000000	     -6.64707987	     -0.43504632	      0.87820835	      0.79565751	      1.27017022	     -0.91509225	      0.66891682	      3.39483806	     -2.53894088	    -38.40661143	    -14.43311850	      4.82404739	     16.50108332	     22.50776381	      6.36436891	      7.52259713	     -9.25676733	    -11.96354036	    -21.84516463	     -0.65711096	      1.21102166	     -2.59227908	      0.57134139
      2.36500000	     -6.43442949	     -0.13379755	      0.99013859	      0.80195095	      1.27128426	     -0.91563064	      1.27548397	      2.76460481	     -3.29247813	    -39.91089189	    -15.53942442	      4.15753306	     16.11246875	     21.57932664	      6.70645464	      7.52177508	     -8.85906963	    -11.78467581	    -21.76380381	     -0.63396981	      1.08078662	     -2.98231268	      0.42867317
      2.37000000	     -6.18109543	      0.13378417	      1.06677890	      0.80811208	      1.27242250	     -0.91615741	      1.85320837	      2.18489967	     -3.93663222	    -41.37173969	    -16.56041930	      3.34164182	     15.20801948	     20.61612649	      7.00213343	      7.47130752	     -8.47245784	    -11.55916730	    -21.69798015	     -0.55608085	      0.89925482	     -3.32994581	      0.44402918
      2.37500000	     -5.96958290	      0.38202054	      1.14445009	      0.81425925	      1.27351049	     -0.91670798	      2.47826643	      1.62775731	     -4.52876418	    -42.78544213	    -17.34038008	      2.48164130	     14.29241319	     19.66259004	      7.27502854	      7.43144727	     -8.01132292	    -11.33996815	    -21.57005862	     -0.46617743	      0.76008825	     -3.63980843	      0.38943282
      2.38000000	     -5.78590926	      0.60459462	      1.21801229	      0.82036846	      1.27456491	     -0.91727939	      3.13583075	      1.10471510	     -5.05653572	    -44.14836235	    -17.91012616	      1.70007608	     12.91042429	     18.71683393	      7.51536851	      7.38196247	     -7.50118826	    -11.09372083	    -21.31336083	     -0.28808767	      0.64969100	     -3.91122721	      0.33429931
      2.38500000	     -5.57913340	      0.78864526	      1.28520308	      0.82635450	      1.27562270	     -0.91785250	      3.77378419	      0.65182952	     -5.51133866	    -45.42720563	    -18.21022130	      0.56339456	     12.54105309	     17.75929997	      7.71935726	      7.31571093	     -7.00249269	    -10.89476333	    -21.21352133	     -0.26342694	      0.48757819	     -4.12580569	      0.23212781
